<svg xmlns="http://www.w3.org/2000/svg" xmlns:xlink="http://www.w3.org/1999/xlink" width="250" zoomAndPan="magnify" viewBox="0 0 187.5 112.499997" height="150" preserveAspectRatio="xMidYMid meet" version="1.0"><defs><g/><clipPath id="c26359ce05"><path d="M 0.164062 0 L 186.835938 0 L 186.835938 112.003906 L 0.164062 112.003906 Z M 0.164062 0 " clip-rule="nonzero"/></clipPath><clipPath id="4cdb0ca8a7"><path d="M 92 59 L 95 59 L 95 63 L 92 63 Z M 92 59 " clip-rule="nonzero"/></clipPath><clipPath id="8dca61b349"><path d="M 90.992188 61.765625 L 94.019531 58.445312 L 95.679688 59.957031 L 92.652344 63.277344 Z M 90.992188 61.765625 " clip-rule="nonzero"/></clipPath><clipPath id="cbedc0c82e"><path d="M 90.992188 61.765625 L 94.019531 58.445312 L 95.679688 59.957031 L 92.652344 63.277344 Z M 90.992188 61.765625 " clip-rule="nonzero"/></clipPath><clipPath id="db76fd9266"><path d="M 95 58.855469 L 97 58.855469 L 97 63.347656 L 95 63.347656 Z M 95 58.855469 " clip-rule="nonzero"/></clipPath><clipPath id="47adf560e8"><path d="M 96 59 L 100 59 L 100 63 L 96 63 Z M 96 59 " clip-rule="nonzero"/></clipPath><clipPath id="ba61ee80ea"><path d="M 98.75 63.191406 L 96.214844 59.480469 L 98.070312 58.214844 L 100.605469 61.921875 Z M 98.75 63.191406 " clip-rule="nonzero"/></clipPath><clipPath id="af80e86287"><path d="M 98.75 63.191406 L 96.214844 59.480469 L 98.070312 58.214844 L 100.605469 61.921875 Z M 98.75 63.191406 " clip-rule="nonzero"/></clipPath><clipPath id="c61adb895e"><path d="M 92 46 L 96 46 L 96 50 L 92 50 Z M 92 46 " clip-rule="nonzero"/></clipPath><clipPath id="33019611c4"><path d="M 93.0625 45.046875 L 95.644531 48.722656 L 93.808594 50.015625 L 91.226562 46.339844 Z M 93.0625 45.046875 " clip-rule="nonzero"/></clipPath><clipPath id="bf8393c6c4"><path d="M 93.0625 45.046875 L 95.644531 48.722656 L 93.808594 50.015625 L 91.226562 46.339844 Z M 93.0625 45.046875 " clip-rule="nonzero"/></clipPath><clipPath id="47aae5a111"><path d="M 94 43 L 97 43 L 97 49 L 94 49 Z M 94 43 " clip-rule="nonzero"/></clipPath><clipPath id="cc5d6f7428"><path d="M 97.460938 43.160156 L 96.914062 49.125 L 93.933594 48.851562 L 94.480469 42.886719 Z M 97.460938 43.160156 " clip-rule="nonzero"/></clipPath><clipPath id="20f5d701fa"><path d="M 97.460938 43.160156 L 96.914062 49.125 L 93.933594 48.851562 L 94.480469 42.886719 Z M 97.460938 43.160156 " clip-rule="nonzero"/></clipPath><clipPath id="62462f6e08"><path d="M 96 45 L 100 45 L 100 50 L 96 50 Z M 96 45 " clip-rule="nonzero"/></clipPath><clipPath id="25a6293daf"><path d="M 95.945312 48.269531 L 99.125 45.089844 L 100.710938 46.679688 L 97.535156 49.855469 Z M 95.945312 48.269531 " clip-rule="nonzero"/></clipPath><clipPath id="6ca29ff34d"><path d="M 100.546875 46.664062 L 97.371094 49.839844 L 95.78125 48.25 L 98.957031 45.074219 Z M 100.546875 46.664062 " clip-rule="nonzero"/></clipPath></defs><g clip-path="url(#c26359ce05)"><path fill="#ffffff" d="M 0.164062 0 L 187.335938 0 L 187.335938 119.039062 L 0.164062 119.039062 Z M 0.164062 0 " fill-opacity="1" fill-rule="nonzero"/><path fill="#ffffff" d="M 0.164062 0 L 187.335938 0 L 187.335938 112.300781 L 0.164062 112.300781 Z M 0.164062 0 " fill-opacity="1" fill-rule="nonzero"/></g><path stroke-linecap="butt" transform="matrix(0.748672, 0, 0, 0.748672, 84.379958, 57.818247)" fill="none" stroke-linejoin="miter" d="M -0.00140506 0.498427 L 29.999614 0.498427 " stroke="#000000" stroke-width="1" stroke-opacity="1" stroke-miterlimit="4"/><path stroke-linecap="butt" transform="matrix(0.764123, 0.000000000000000651, -0.000000000000000638, 0.748672, 89.382293, 63.621773)" fill="none" stroke-linejoin="miter" d="M 0.00067957 0.49998 L 16.666016 0.49998 " stroke="#000000" stroke-width="1" stroke-opacity="1" stroke-miterlimit="4"/><path stroke-linecap="butt" transform="matrix(0.000000000000000047, 0.775603, -0.748672, 0.000000000000000046, 101.833118, 57.857065)" fill="none" stroke-linejoin="miter" d="M -0.00205854 0.502338 L 8.700846 0.502338 " stroke="#000000" stroke-width="1" stroke-opacity="1" stroke-miterlimit="4"/><path stroke-linecap="butt" transform="matrix(-0.00000000000000145, 0.748672, -0.748672, -0.00000000000000145, 90.130967, 57.852387)" fill="none" stroke-linejoin="miter" d="M -0.00110122 0.498422 L 7.997431 0.498422 " stroke="#000000" stroke-width="1" stroke-opacity="1" stroke-miterlimit="4"/><g clip-path="url(#4cdb0ca8a7)"><g clip-path="url(#8dca61b349)"><g clip-path="url(#cbedc0c82e)"><path fill="#ecce55" d="M 94.601562 60.371094 C 94.738281 59.980469 94.722656 59.464844 94.613281 59.160156 C 94.515625 58.898438 94.335938 59.042969 94.164062 59.109375 C 93.34375 59.429688 92.566406 60.042969 92.242188 61.0625 C 92.042969 61.679688 92.191406 62.097656 92.164062 62.261719 C 92.152344 62.316406 91.941406 62.632812 92.457031 62.429688 C 92.570312 62.386719 92.59375 62.378906 92.714844 62.347656 C 93.445312 62.164062 94.175781 61.609375 94.5 60.671875 Z M 94.601562 60.371094 " fill-opacity="1" fill-rule="evenodd"/></g></g></g><g clip-path="url(#db76fd9266)"><path fill="#ecce55" d="M 96.558594 59.886719 C 96.394531 59.507812 96.039062 59.136719 95.75 58.984375 C 95.503906 58.859375 95.464844 59.085938 95.382812 59.25 C 94.996094 60.039062 94.832031 61.019531 95.28125 61.988281 C 95.550781 62.578125 95.941406 62.789062 96.027344 62.925781 C 96.058594 62.976562 96.117188 63.347656 96.359375 62.851562 C 96.414062 62.746094 96.425781 62.726562 96.496094 62.621094 C 96.914062 61.992188 97.078125 61.089844 96.683594 60.179688 Z M 96.558594 59.886719 " fill-opacity="1" fill-rule="evenodd"/></g><g clip-path="url(#47adf560e8)"><g clip-path="url(#ba61ee80ea)"><g clip-path="url(#af80e86287)"><path fill="#ecce55" d="M 98.222656 59.359375 C 97.875 59.136719 97.371094 59.03125 97.046875 59.070312 C 96.769531 59.105469 96.867188 59.3125 96.894531 59.496094 C 97.019531 60.367188 97.4375 61.265625 98.355469 61.816406 C 98.910156 62.148438 99.351562 62.101562 99.5 62.167969 C 99.554688 62.191406 99.8125 62.464844 99.734375 61.917969 C 99.71875 61.800781 99.714844 61.773438 99.714844 61.648438 C 99.703125 60.894531 99.332031 60.058594 98.492188 59.527344 Z M 98.222656 59.359375 " fill-opacity="1" fill-rule="evenodd"/></g></g></g><path stroke-linecap="butt" transform="matrix(0.748672, 0, 0, 0.748672, 84.379958, 49.158629)" fill="none" stroke-linejoin="miter" d="M -0.00140506 0.497709 L 29.999614 0.497709 " stroke="#000000" stroke-width="1" stroke-opacity="1" stroke-miterlimit="4"/><path stroke-linecap="butt" transform="matrix(0.00000000000000217, 0.684501, -0.748672, 0.000000000000002373, 90.126191, 45.878406)" fill="none" stroke-linejoin="miter" d="M 0.000730386 0.502477 L 4.389195 0.502477 " stroke="#000000" stroke-width="1" stroke-opacity="1" stroke-miterlimit="4"/><path stroke-linecap="butt" transform="matrix(0.000000000000000042, 0.684501, -0.748672, 0.000000000000000046, 101.833017, 45.878406)" fill="none" stroke-linejoin="miter" d="M 0.000730386 0.502204 L 4.389195 0.502204 " stroke="#000000" stroke-width="1" stroke-opacity="1" stroke-miterlimit="4"/><path stroke-linecap="butt" transform="matrix(0.591612, 0.393339, -0.414509, 0.623453, 95.907101, 41.818579)" fill="none" stroke-linejoin="miter" d="M -0.00182615 0.498908 L 9.485053 0.497154 " stroke="#000000" stroke-width="1" stroke-opacity="1" stroke-miterlimit="4"/><path stroke-linecap="butt" transform="matrix(0.636037, -0.392708, 0.393321, 0.637031, 89.480654, 45.751585)" fill="none" stroke-linejoin="miter" d="M -0.00189489 0.499164 L 10.019333 0.502023 " stroke="#000000" stroke-width="1" stroke-opacity="1" stroke-miterlimit="4"/><g fill="#000000" fill-opacity="1"><g transform="translate(74.198946, 55.859229)"><g><path d="M 3.453125 -3.796875 L 2.0625 -3.796875 L 2.0625 0 L 1.484375 0 L 1.484375 -3.796875 L 0.09375 -3.796875 L 0.09375 -4.28125 L 3.453125 -4.28125 Z M 3.453125 -3.796875 "/></g></g></g><g fill="#000000" fill-opacity="1"><g transform="translate(77.735685, 55.859229)"><g><path d="M 4.515625 -2.140625 C 4.515625 -1.816406 4.460938 -1.519531 4.359375 -1.25 C 4.253906 -0.988281 4.109375 -0.757812 3.921875 -0.5625 C 3.734375 -0.375 3.507812 -0.222656 3.25 -0.109375 C 2.988281 -0.00390625 2.703125 0.046875 2.390625 0.046875 C 2.078125 0.046875 1.789062 -0.00390625 1.53125 -0.109375 C 1.269531 -0.222656 1.046875 -0.375 0.859375 -0.5625 C 0.679688 -0.757812 0.539062 -0.988281 0.4375 -1.25 C 0.332031 -1.519531 0.28125 -1.816406 0.28125 -2.140625 C 0.28125 -2.460938 0.332031 -2.753906 0.4375 -3.015625 C 0.539062 -3.285156 0.679688 -3.519531 0.859375 -3.71875 C 1.046875 -3.914062 1.269531 -4.066406 1.53125 -4.171875 C 1.789062 -4.273438 2.078125 -4.328125 2.390625 -4.328125 C 2.703125 -4.328125 2.988281 -4.273438 3.25 -4.171875 C 3.507812 -4.066406 3.734375 -3.914062 3.921875 -3.71875 C 4.109375 -3.519531 4.253906 -3.285156 4.359375 -3.015625 C 4.460938 -2.753906 4.515625 -2.460938 4.515625 -2.140625 Z M 3.90625 -2.140625 C 3.90625 -2.398438 3.867188 -2.632812 3.796875 -2.84375 C 3.734375 -3.0625 3.632812 -3.238281 3.5 -3.375 C 3.363281 -3.519531 3.203125 -3.628906 3.015625 -3.703125 C 2.828125 -3.785156 2.617188 -3.828125 2.390625 -3.828125 C 2.160156 -3.828125 1.953125 -3.785156 1.765625 -3.703125 C 1.578125 -3.628906 1.414062 -3.519531 1.28125 -3.375 C 1.15625 -3.238281 1.054688 -3.0625 0.984375 -2.84375 C 0.910156 -2.632812 0.875 -2.398438 0.875 -2.140625 C 0.875 -1.878906 0.910156 -1.644531 0.984375 -1.4375 C 1.054688 -1.226562 1.15625 -1.050781 1.28125 -0.90625 C 1.414062 -0.757812 1.578125 -0.644531 1.765625 -0.5625 C 1.953125 -0.488281 2.160156 -0.453125 2.390625 -0.453125 C 2.617188 -0.453125 2.828125 -0.488281 3.015625 -0.5625 C 3.203125 -0.644531 3.363281 -0.757812 3.5 -0.90625 C 3.632812 -1.050781 3.734375 -1.226562 3.796875 -1.4375 C 3.867188 -1.644531 3.90625 -1.878906 3.90625 -2.140625 Z M 3.90625 -2.140625 "/></g></g></g><g fill="#000000" fill-opacity="1"><g transform="translate(82.5302, 55.859229)"><g><path d="M 4.015625 -4.28125 L 4.015625 0 L 3.734375 0 C 3.679688 0 3.640625 -0.00390625 3.609375 -0.015625 C 3.578125 -0.0351562 3.550781 -0.0664062 3.53125 -0.109375 L 1.046875 -3.34375 C 1.046875 -3.289062 1.046875 -3.238281 1.046875 -3.1875 C 1.054688 -3.144531 1.0625 -3.101562 1.0625 -3.0625 L 1.0625 0 L 0.546875 0 L 0.546875 -4.28125 L 0.84375 -4.28125 C 0.875 -4.28125 0.894531 -4.28125 0.90625 -4.28125 C 0.925781 -4.28125 0.941406 -4.273438 0.953125 -4.265625 C 0.972656 -4.265625 0.988281 -4.253906 1 -4.234375 C 1.007812 -4.222656 1.023438 -4.207031 1.046875 -4.1875 L 3.53125 -0.953125 C 3.519531 -1.003906 3.515625 -1.054688 3.515625 -1.109375 C 3.515625 -1.160156 3.515625 -1.207031 3.515625 -1.25 L 3.515625 -4.28125 Z M 4.015625 -4.28125 "/></g></g></g><g fill="#000000" fill-opacity="1"><g transform="translate(87.103108, 55.859229)"><g><path d="M 1.125 0 L 0.546875 0 L 0.546875 -4.28125 L 1.125 -4.28125 Z M 1.125 0 "/></g></g></g><g fill="#000000" fill-opacity="1"><g transform="translate(88.780145, 55.859229)"><g><path d="M 2.734375 -3.625 C 2.722656 -3.59375 2.707031 -3.566406 2.6875 -3.546875 C 2.664062 -3.535156 2.640625 -3.53125 2.609375 -3.53125 C 2.578125 -3.53125 2.535156 -3.546875 2.484375 -3.578125 C 2.441406 -3.609375 2.382812 -3.644531 2.3125 -3.6875 C 2.25 -3.726562 2.164062 -3.765625 2.0625 -3.796875 C 1.96875 -3.835938 1.851562 -3.859375 1.71875 -3.859375 C 1.582031 -3.859375 1.460938 -3.835938 1.359375 -3.796875 C 1.265625 -3.765625 1.179688 -3.71875 1.109375 -3.65625 C 1.046875 -3.59375 1 -3.519531 0.96875 -3.4375 C 0.9375 -3.363281 0.921875 -3.28125 0.921875 -3.1875 C 0.921875 -3.0625 0.945312 -2.957031 1 -2.875 C 1.0625 -2.800781 1.140625 -2.738281 1.234375 -2.6875 C 1.335938 -2.632812 1.445312 -2.585938 1.5625 -2.546875 C 1.6875 -2.503906 1.8125 -2.457031 1.9375 -2.40625 C 2.070312 -2.363281 2.203125 -2.316406 2.328125 -2.265625 C 2.453125 -2.210938 2.5625 -2.144531 2.65625 -2.0625 C 2.75 -1.976562 2.828125 -1.875 2.890625 -1.75 C 2.953125 -1.625 2.984375 -1.472656 2.984375 -1.296875 C 2.984375 -1.109375 2.945312 -0.929688 2.875 -0.765625 C 2.8125 -0.609375 2.71875 -0.46875 2.59375 -0.34375 C 2.476562 -0.21875 2.328125 -0.117188 2.140625 -0.046875 C 1.960938 0.015625 1.765625 0.046875 1.546875 0.046875 C 1.265625 0.046875 1.007812 0 0.78125 -0.09375 C 0.550781 -0.195312 0.359375 -0.335938 0.203125 -0.515625 L 0.359375 -0.78125 C 0.378906 -0.800781 0.398438 -0.816406 0.421875 -0.828125 C 0.441406 -0.847656 0.46875 -0.859375 0.5 -0.859375 C 0.519531 -0.859375 0.546875 -0.847656 0.578125 -0.828125 C 0.617188 -0.804688 0.660156 -0.78125 0.703125 -0.75 C 0.742188 -0.71875 0.789062 -0.679688 0.84375 -0.640625 C 0.894531 -0.609375 0.953125 -0.578125 1.015625 -0.546875 C 1.085938 -0.515625 1.164062 -0.488281 1.25 -0.46875 C 1.34375 -0.445312 1.445312 -0.4375 1.5625 -0.4375 C 1.695312 -0.4375 1.816406 -0.453125 1.921875 -0.484375 C 2.035156 -0.523438 2.128906 -0.578125 2.203125 -0.640625 C 2.273438 -0.710938 2.332031 -0.796875 2.375 -0.890625 C 2.414062 -0.992188 2.4375 -1.101562 2.4375 -1.21875 C 2.4375 -1.34375 2.40625 -1.445312 2.34375 -1.53125 C 2.28125 -1.613281 2.203125 -1.679688 2.109375 -1.734375 C 2.015625 -1.796875 1.90625 -1.84375 1.78125 -1.875 C 1.65625 -1.914062 1.53125 -1.957031 1.40625 -2 C 1.28125 -2.039062 1.15625 -2.085938 1.03125 -2.140625 C 0.90625 -2.203125 0.796875 -2.273438 0.703125 -2.359375 C 0.609375 -2.441406 0.53125 -2.546875 0.46875 -2.671875 C 0.40625 -2.804688 0.375 -2.96875 0.375 -3.15625 C 0.375 -3.3125 0.40625 -3.457031 0.46875 -3.59375 C 0.53125 -3.738281 0.613281 -3.863281 0.71875 -3.96875 C 0.832031 -4.082031 0.972656 -4.171875 1.140625 -4.234375 C 1.304688 -4.296875 1.492188 -4.328125 1.703125 -4.328125 C 1.941406 -4.328125 2.160156 -4.289062 2.359375 -4.21875 C 2.554688 -4.144531 2.726562 -4.035156 2.875 -3.890625 Z M 2.734375 -3.625 "/></g></g></g><g fill="#000000" fill-opacity="1"><g transform="translate(92.029393, 55.859229)"><g><path d="M 4.015625 -4.28125 L 4.015625 0 L 3.4375 0 L 3.4375 -1.953125 L 1.125 -1.953125 L 1.125 0 L 0.546875 0 L 0.546875 -4.28125 L 1.125 -4.28125 L 1.125 -2.375 L 3.4375 -2.375 L 3.4375 -4.28125 Z M 4.015625 -4.28125 "/></g></g></g><g fill="#000000" fill-opacity="1"><g transform="translate(96.602301, 55.859229)"><g><path d="M 1.125 0 L 0.546875 0 L 0.546875 -4.28125 L 1.125 -4.28125 Z M 1.125 0 "/></g></g></g><g fill="#000000" fill-opacity="1"><g transform="translate(98.279338, 55.859229)"><g><path d="M 2.828125 -1.59375 L 2.15625 -3.34375 C 2.132812 -3.382812 2.113281 -3.441406 2.09375 -3.515625 C 2.070312 -3.585938 2.050781 -3.660156 2.03125 -3.734375 C 1.988281 -3.578125 1.941406 -3.441406 1.890625 -3.328125 L 1.21875 -1.59375 Z M 4.03125 0 L 3.578125 0 C 3.523438 0 3.484375 -0.0078125 3.453125 -0.03125 C 3.421875 -0.0625 3.398438 -0.0976562 3.390625 -0.140625 L 2.984375 -1.171875 L 1.0625 -1.171875 L 0.65625 -0.140625 C 0.644531 -0.0976562 0.625 -0.0625 0.59375 -0.03125 C 0.5625 -0.0078125 0.519531 0 0.46875 0 L 0.015625 0 L 1.734375 -4.28125 L 2.3125 -4.28125 Z M 4.03125 0 "/></g></g></g><g fill="#000000" fill-opacity="1"><g transform="translate(102.334162, 55.859229)"><g/></g></g><g fill="#000000" fill-opacity="1"><g transform="translate(103.867449, 55.859229)"><g><path d="M 6.109375 -4.28125 L 4.765625 0 L 4.25 0 L 3.15625 -3.265625 C 3.144531 -3.296875 3.132812 -3.328125 3.125 -3.359375 C 3.125 -3.398438 3.117188 -3.441406 3.109375 -3.484375 C 3.097656 -3.441406 3.085938 -3.398438 3.078125 -3.359375 C 3.066406 -3.328125 3.054688 -3.296875 3.046875 -3.265625 L 1.953125 0 L 1.4375 0 L 0.09375 -4.28125 L 0.578125 -4.28125 C 0.628906 -4.28125 0.671875 -4.265625 0.703125 -4.234375 C 0.734375 -4.210938 0.753906 -4.1875 0.765625 -4.15625 L 1.65625 -1.171875 C 1.664062 -1.117188 1.675781 -1.0625 1.6875 -1 C 1.707031 -0.9375 1.722656 -0.867188 1.734375 -0.796875 C 1.742188 -0.867188 1.753906 -0.9375 1.765625 -1 C 1.785156 -1.0625 1.804688 -1.117188 1.828125 -1.171875 L 2.84375 -4.15625 C 2.851562 -4.1875 2.875 -4.210938 2.90625 -4.234375 C 2.9375 -4.265625 2.976562 -4.28125 3.03125 -4.28125 L 3.203125 -4.28125 C 3.253906 -4.28125 3.296875 -4.265625 3.328125 -4.234375 C 3.359375 -4.210938 3.382812 -4.1875 3.40625 -4.15625 L 4.40625 -1.171875 C 4.425781 -1.117188 4.441406 -1.0625 4.453125 -1 C 4.460938 -0.9375 4.476562 -0.875 4.5 -0.8125 C 4.507812 -0.875 4.519531 -0.9375 4.53125 -1 C 4.539062 -1.0625 4.550781 -1.117188 4.5625 -1.171875 L 5.453125 -4.15625 C 5.460938 -4.1875 5.484375 -4.210938 5.515625 -4.234375 C 5.554688 -4.265625 5.601562 -4.28125 5.65625 -4.28125 Z M 6.109375 -4.28125 "/></g></g></g><g fill="#000000" fill-opacity="1"><g transform="translate(110.069474, 55.859229)"><g><path d="M 3.1875 -0.46875 L 3.1875 0 L 0.546875 0 L 0.546875 -4.28125 L 3.1875 -4.28125 L 3.1875 -3.8125 L 1.125 -3.8125 L 1.125 -2.390625 L 2.796875 -2.390625 L 2.796875 -1.9375 L 1.125 -1.9375 L 1.125 -0.46875 Z M 3.1875 -0.46875 "/></g></g></g><g fill="#000000" fill-opacity="1"><g transform="translate(113.528357, 55.859229)"><g><path d="M 2.734375 -3.625 C 2.722656 -3.59375 2.707031 -3.566406 2.6875 -3.546875 C 2.664062 -3.535156 2.640625 -3.53125 2.609375 -3.53125 C 2.578125 -3.53125 2.535156 -3.546875 2.484375 -3.578125 C 2.441406 -3.609375 2.382812 -3.644531 2.3125 -3.6875 C 2.25 -3.726562 2.164062 -3.765625 2.0625 -3.796875 C 1.96875 -3.835938 1.851562 -3.859375 1.71875 -3.859375 C 1.582031 -3.859375 1.460938 -3.835938 1.359375 -3.796875 C 1.265625 -3.765625 1.179688 -3.71875 1.109375 -3.65625 C 1.046875 -3.59375 1 -3.519531 0.96875 -3.4375 C 0.9375 -3.363281 0.921875 -3.28125 0.921875 -3.1875 C 0.921875 -3.0625 0.945312 -2.957031 1 -2.875 C 1.0625 -2.800781 1.140625 -2.738281 1.234375 -2.6875 C 1.335938 -2.632812 1.445312 -2.585938 1.5625 -2.546875 C 1.6875 -2.503906 1.8125 -2.457031 1.9375 -2.40625 C 2.070312 -2.363281 2.203125 -2.316406 2.328125 -2.265625 C 2.453125 -2.210938 2.5625 -2.144531 2.65625 -2.0625 C 2.75 -1.976562 2.828125 -1.875 2.890625 -1.75 C 2.953125 -1.625 2.984375 -1.472656 2.984375 -1.296875 C 2.984375 -1.109375 2.945312 -0.929688 2.875 -0.765625 C 2.8125 -0.609375 2.71875 -0.46875 2.59375 -0.34375 C 2.476562 -0.21875 2.328125 -0.117188 2.140625 -0.046875 C 1.960938 0.015625 1.765625 0.046875 1.546875 0.046875 C 1.265625 0.046875 1.007812 0 0.78125 -0.09375 C 0.550781 -0.195312 0.359375 -0.335938 0.203125 -0.515625 L 0.359375 -0.78125 C 0.378906 -0.800781 0.398438 -0.816406 0.421875 -0.828125 C 0.441406 -0.847656 0.46875 -0.859375 0.5 -0.859375 C 0.519531 -0.859375 0.546875 -0.847656 0.578125 -0.828125 C 0.617188 -0.804688 0.660156 -0.78125 0.703125 -0.75 C 0.742188 -0.71875 0.789062 -0.679688 0.84375 -0.640625 C 0.894531 -0.609375 0.953125 -0.578125 1.015625 -0.546875 C 1.085938 -0.515625 1.164062 -0.488281 1.25 -0.46875 C 1.34375 -0.445312 1.445312 -0.4375 1.5625 -0.4375 C 1.695312 -0.4375 1.816406 -0.453125 1.921875 -0.484375 C 2.035156 -0.523438 2.128906 -0.578125 2.203125 -0.640625 C 2.273438 -0.710938 2.332031 -0.796875 2.375 -0.890625 C 2.414062 -0.992188 2.4375 -1.101562 2.4375 -1.21875 C 2.4375 -1.34375 2.40625 -1.445312 2.34375 -1.53125 C 2.28125 -1.613281 2.203125 -1.679688 2.109375 -1.734375 C 2.015625 -1.796875 1.90625 -1.84375 1.78125 -1.875 C 1.65625 -1.914062 1.53125 -1.957031 1.40625 -2 C 1.28125 -2.039062 1.15625 -2.085938 1.03125 -2.140625 C 0.90625 -2.203125 0.796875 -2.273438 0.703125 -2.359375 C 0.609375 -2.441406 0.53125 -2.546875 0.46875 -2.671875 C 0.40625 -2.804688 0.375 -2.96875 0.375 -3.15625 C 0.375 -3.3125 0.40625 -3.457031 0.46875 -3.59375 C 0.53125 -3.738281 0.613281 -3.863281 0.71875 -3.96875 C 0.832031 -4.082031 0.972656 -4.171875 1.140625 -4.234375 C 1.304688 -4.296875 1.492188 -4.328125 1.703125 -4.328125 C 1.941406 -4.328125 2.160156 -4.289062 2.359375 -4.21875 C 2.554688 -4.144531 2.726562 -4.035156 2.875 -3.890625 Z M 2.734375 -3.625 "/></g></g></g><g fill="#000000" fill-opacity="1"><g transform="translate(116.777605, 55.859229)"><g><path d="M 3.453125 -3.796875 L 2.0625 -3.796875 L 2.0625 0 L 1.484375 0 L 1.484375 -3.796875 L 0.09375 -3.796875 L 0.09375 -4.28125 L 3.453125 -4.28125 Z M 3.453125 -3.796875 "/></g></g></g><g clip-path="url(#c61adb895e)"><g clip-path="url(#33019611c4)"><g clip-path="url(#bf8393c6c4)"><path fill="#ecce55" d="M 93.636719 48.871094 C 93.988281 49.085938 94.492188 49.183594 94.8125 49.136719 C 95.089844 49.101562 94.992188 48.894531 94.960938 48.714844 C 94.828125 47.847656 94.398438 46.953125 93.476562 46.417969 C 92.917969 46.09375 92.480469 46.148438 92.328125 46.085938 C 92.273438 46.0625 92.015625 45.792969 92.097656 46.335938 C 92.117188 46.453125 92.117188 46.480469 92.121094 46.605469 C 92.140625 47.355469 92.523438 48.1875 93.367188 48.703125 Z M 93.636719 48.871094 " fill-opacity="1" fill-rule="evenodd"/></g></g></g><g clip-path="url(#47aae5a111)"><g clip-path="url(#cc5d6f7428)"><g clip-path="url(#20f5d701fa)"><path fill="#ecce55" d="M 94.746094 47.546875 C 94.917969 48.070312 95.34375 48.605469 95.710938 48.839844 C 96.023438 49.042969 96.101562 48.746094 96.230469 48.535156 C 96.839844 47.535156 97.175781 46.253906 96.699219 44.910156 C 96.410156 44.09375 95.921875 43.769531 95.820312 43.574219 C 95.785156 43.503906 95.753906 43.003906 95.371094 43.632812 C 95.285156 43.769531 95.265625 43.792969 95.160156 43.925781 C 94.53125 44.707031 94.203125 45.886719 94.613281 47.144531 Z M 94.746094 47.546875 " fill-opacity="1" fill-rule="evenodd"/></g></g></g><g clip-path="url(#62462f6e08)"><g clip-path="url(#25a6293daf)"><g clip-path="url(#6ca29ff34d)"><path fill="#ecce55" d="M 96.878906 47.886719 C 96.726562 48.269531 96.71875 48.78125 96.816406 49.09375 C 96.902344 49.359375 97.085938 49.226562 97.261719 49.164062 C 98.09375 48.882812 98.898438 48.308594 99.265625 47.308594 C 99.488281 46.699219 99.363281 46.277344 99.398438 46.117188 C 99.410156 46.0625 99.632812 45.757812 99.109375 45.9375 C 98.996094 45.972656 98.972656 45.980469 98.851562 46.003906 C 98.113281 46.152344 97.359375 46.671875 96.996094 47.589844 Z M 96.878906 47.886719 " fill-opacity="1" fill-rule="evenodd"/></g></g></g></svg>